# xmcd
#
# Track frame offsets:
#	150
#	14290
#	33253
#	51568
#	66569
#	83528
#	100389
#	116113
#	136672
#	153956
#	166333
#
# Disc length: 2435 seconds
#
# Revision: 1
# Processed by: cddbd v1.4PL0 Copyright (c) Steve Scherf et al.
# Submitted via: EasyCDDAExtractor 6.0.0.1
#
DISCID=8c09810b
DTITLE=Steve Moore and Dave Whatt
DYEAR=1998
DGENRE=Blues
TTITLE0=You can't get that stuff no more
TTITLE1=Me and the devil blues
TTITLE2=When the sun goes down
TTITLE3=Good morning little schoolgirl
TTITLE4=Sitting on top of the world
TTITLE5=Casey you can't ride this train
TTITLE6=Big road blues
TTITLE7=Gypsy Woman
TTITLE8=My phone keeps ringing
TTITLE9=Got the blues this morning
TTITLE10=Come on in my kitchen
EXTD=
EXTT0=
EXTT1=
EXTT2=
EXTT3=
EXTT4=
EXTT5=
EXTT6=
EXTT7=
EXTT8=
EXTT9=
EXTT10=
PLAYORDER=
